<svg xmlns="http://www.w3.org/2000/svg" viewBox="0 0 64 64">
  <defs>
    <style>
      .stripe1 { fill: #00AFEF; }
      .stripe2 { fill: #EC268F; }
      .stripe3 { fill: #FFF212; }
    </style>
  </defs>
  
  <!-- Letter "d" in white -->
  <path fill="#FEFEFE" d="M 42 8 L 42 44 L 36 44 L 36 39 C 34 42 31 44 27 44 C 20 44 15 38 15 30 C 15 22 20 16 27 16 C 31 16 34 18 36 21 L 36 8 Z M 27 22 C 23 22 20 25 20 30 C 20 35 23 38 27 38 C 31 38 34 35 34 30 C 34 25 31 22 27 22 Z"/>
  
  <!-- Three color stripes in a horizontal line at the bottom -->
  <rect class="stripe1" y="48" width="21.33" height="16" rx="0 0 0 12"/>
  <rect class="stripe2" x="21.33" y="48" width="21.34" height="16"/>
  <rect class="stripe3" x="42.67" y="48" width="21.33" height="16" rx="0 0 12 0"/>
</svg>