<svg xmlns="http://www.w3.org/2000/svg" version="1.1" xmlns:xlink="http://www.w3.org/1999/xlink" xmlns:svgjs="http://svgjs.com/svgjs" width="1400" height="660" preserveAspectRatio="none" viewBox="0 0 1400 600"><g mask="url(&quot;#SvgjsMask1012&quot;)" fill="none"><rect width="1400" height="600" x="0" y="0" fill="url(#SvgjsLinearGradient1013)"></rect><path d="M-178.79 122.47C-45.81 124.21 48.67 266.5 329.77 278.47 610.87 290.44 687.96 590.64 838.33 604.2" stroke="rgba(51,121,194,0.58)" stroke-width="2"></path><path d="M-218.53 352.53C-82.98 349.03 22.92 151.33 286.4 154.53 549.88 157.73 618.22 614.56 791.33 654.31" stroke="rgba(51,121,194,0.58)" stroke-width="2"></path><path d="M-17.64 501.54C92.97 496.13 173.26 301.61 378.61 303.54 583.96 305.47 636 682.29 774.86 717.62" stroke="rgba(51,121,194,0.58)" stroke-width="2"></path><path d="M-44.69 249.23C119.22 247.81 329.96 72.35 589.07 81.23 848.18 90.11 765.5 575.59 905.95 663.63" stroke="rgba(51,121,194,0.58)" stroke-width="2"></path><path d="M-0.42 527.82C144.44 517.23 245.84 233.03 500.68 233.82 755.52 234.61 832.16 677.51 1001.78 714.11" stroke="rgba(51,121,194,0.58)" stroke-width="2"></path></g><defs><mask id="SvgjsMask1012"><rect width="1400" height="600" fill="#ffffff"></rect></mask><linearGradient x1="14.29%" y1="-33.33%" x2="85.71%" y2="133.33%" gradientUnits="userSpaceOnUse" id="SvgjsLinearGradient1013"><stop stop-color="#0e2a47" offset="0"></stop><stop stop-color="rgba(59, 59, 138, 1)" offset="1"></stop></linearGradient></defs></svg>