<?xml version="1.0" encoding="UTF-8" standalone="no" ?>
<!DOCTYPE svg PUBLIC "-//W3C//DTD SVG 1.1//EN" "http://www.w3.org/Graphics/SVG/1.1/DTD/svg11.dtd">
<svg xmlns="http://www.w3.org/2000/svg" xmlns:xlink="http://www.w3.org/1999/xlink" version="1.1" width="640" height="230" viewBox="0 0 640 230" xml:space="preserve">
<desc>Created with Fabric.js 3.6.3</desc>
<defs>
</defs>
<g transform="matrix(0.02 0 0 0.02 110.79 100.05)" id="_2213602007328"  >
<path style="stroke: none; stroke-width: 1; stroke-dasharray: none; stroke-linecap: butt; stroke-dashoffset: 0; stroke-linejoin: miter; stroke-miterlimit: 4; fill: rgb(216,49,53); fill-rule: nonzero; opacity: 1;"  transform=" translate(-5411.82, -7802.61)" d="M 6511.27 10719.17 c -532.84 0 -917.36 -108.49 -1153.57 -325.47 c -80.01 -73.49 -146.44 -160.71 -199.35 -261.62 c -60.68 154.41 -141.48 279.29 -242.4 374.6 c -150 141.67 -383.32 212.49 -699.98 212.49 l -1658.28 0 c -283.32 0 -520.82 -40.27 -712.48 -120.83 c -191.66 -80.55 -345.82 -191.65 -462.48 -333.31 c -116.65 -141.67 -201.38 -311.12 -254.16 -508.33 c -52.78 -197.2 -79.16 -412.48 -79.16 -645.8 c 0 -122.22 8.33 -245.84 24.99 -370.82 c 16.67 -125.01 38.9 -256.94 66.67 -395.83 c 72.22 -333.32 161.12 -627.76 266.66 -883.3 c 105.55 -255.56 244.43 -468.05 416.66 -637.48 c 172.21 -169.43 386.09 -298.61 641.64 -387.49 c 255.54 -88.88 572.2 -133.33 949.97 -133.33 l 1274.96 0 l 299.98 -1416.61 l 1299.96 0 l -379.11 1791.1 c 19.56 -15.63 39.47 -30.61 59.77 -44.9 c 195.02 -137.33 436.71 -226.59 725.1 -267.8 c 288.4 -41.2 644.08 -61.79 1067.06 -61.79 c 307.62 0 585.03 20.59 832.22 61.79 c 247.19 41.21 458.68 111.24 634.46 210.12 c 175.79 98.87 310.36 233.46 403.75 403.74 c 93.38 170.29 140.08 384.53 140.08 642.72 c 0 87.89 -6.86 182.64 -20.6 284.26 c -13.73 101.63 -34.33 207.37 -61.8 317.23 c -54.93 247.19 -146.94 432.59 -276.03 556.2 c -129.09 123.58 -328.22 185.39 -597.38 185.39 l -2463.71 0 c -21.96 104.37 -32.95 208.74 -32.95 313.11 c 0 170.29 52.17 299.37 156.56 387.28 c 104.36 87.88 296.63 131.83 576.78 131.83 l 2125.86 0 l -197.75 922.85 l -2471.94 0 z m -2020.31 -3458.21 l -908.3 0 c -188.88 0 -347.21 36.11 -474.98 108.32 c -127.78 72.22 -233.33 166.67 -316.66 283.33 c -83.33 116.66 -149.99 250 -199.99 399.98 c -50 149.99 -91.67 302.78 -125 458.32 c -27.78 111.1 -48.61 218.05 -62.5 320.83 c -13.89 102.78 -20.83 201.38 -20.83 295.83 c 0 188.88 48.6 341.65 145.82 458.31 c 97.23 116.66 276.38 175 537.49 175 l 558.31 0 c 127.79 0 219.45 -23.62 275 -70.83 c 55.55 -47.23 97.21 -134.73 124.98 -262.5 l 466.66 -2166.59 z m 3651.79 813.23 c 115.35 0 190.88 -30.2 226.59 -90.63 c 35.71 -60.42 59.05 -118.1 70.04 -173.03 c 10.99 -54.94 16.48 -93.39 16.48 -115.37 c 0 -87.88 -24.71 -162.04 -74.16 -222.46 c -49.44 -60.43 -112.61 -108.5 -189.51 -144.21 c -76.91 -35.7 -163.43 -61.79 -259.55 -78.27 c -96.14 -16.47 -190.89 -24.73 -284.28 -24.73 c -335.08 0 -585.03 61.81 -749.82 185.4 c -164.8 123.61 -282.89 344.7 -354.3 663.3 l 1598.51 0 z" stroke-linecap="round" />
</g>
<g transform="matrix(0.02 0 0 0.02 259.69 131.23)" id="_2213602007328"  >
<path style="stroke: none; stroke-width: 1; stroke-dasharray: none; stroke-linecap: butt; stroke-dashoffset: 0; stroke-linejoin: miter; stroke-miterlimit: 4; fill: rgb(59,59,138); fill-rule: nonzero; opacity: 1;"  transform=" translate(-12089.38, -9200.98)" d="M 13170.92 6322.3 c 301.63 0 549.73 39.82 744.4 119.29 c 194.58 79.56 348.16 189.23 460.56 329.02 c 112.39 139.79 190.49 307.07 234.4 501.74 c 43.81 194.58 65.77 409.85 65.77 645.61 c 0 115.12 -8.16 235.77 -24.68 361.86 c -16.41 126.09 -38.37 255 -65.76 386.63 c -71.31 350.88 -159.03 652.5 -263.16 904.69 c -104.24 252.18 -242.66 460.55 -415.38 625.11 c -172.72 164.46 -387.99 286.47 -645.71 365.94 c -257.62 79.56 -570.23 119.29 -937.62 119.29 l -1250.13 0 l -296.09 1398.17 l -1274.81 0 l 1044.48 -4934.85 c 120.65 -548.27 452.39 -822.5 995.23 -822.5 l 1628.5 0 z m -1891.66 3413.3 l 904.69 0 c 186.42 0 342.72 -35.65 468.81 -106.86 c 126.09 -71.3 230.32 -164.56 312.51 -279.67 c 82.28 -115.12 146.68 -246.74 193.31 -394.79 c 46.63 -148.04 86.36 -298.81 119.29 -452.39 c 27.4 -109.68 47.99 -215.17 61.69 -316.59 c 13.69 -101.52 20.49 -198.85 20.49 -292.01 c 0 -186.42 -46.53 -337.18 -139.78 -452.4 c -93.16 -115.11 -268.7 -172.72 -526.42 -172.72 l -559.25 0 c -120.65 0 -211.09 23.32 -271.42 69.95 c -60.32 46.63 -101.41 127.45 -123.37 242.66 l -460.55 2154.82 z" stroke-linecap="round" />
</g>
<g transform="matrix(0.02 0 0 0.02 360.02 115.64)" id="_2213602007328"  >
<path style="stroke: none; stroke-width: 1; stroke-dasharray: none; stroke-linecap: butt; stroke-dashoffset: 0; stroke-linejoin: miter; stroke-miterlimit: 4; fill: rgb(59,59,138); fill-rule: nonzero; opacity: 1;"  transform=" translate(-16588.35, -8501.89)" d="M 15276.49 8049.59 c 71.3 -340 168.64 -621.03 292.01 -843.1 c 123.37 -222.07 278.21 -398.87 464.63 -530.5 c 186.51 -131.63 408.58 -223.43 666.2 -275.49 c 257.72 -52.07 556.63 -78.2 896.53 -78.2 l 863.6 0 l -197.39 945.87 l -509.9 0 c -208.37 0 -383.81 24.68 -526.42 74.03 c -142.51 49.35 -261.8 122.01 -357.78 217.99 c -95.97 95.97 -174.08 216.53 -234.4 361.85 c -60.33 145.33 -109.67 313.97 -148.05 505.82 l -485.22 2253.62 l -1283.06 0 l 559.25 -2631.89 z" stroke-linecap="round" />
</g>
<g transform="matrix(0.02 0 0 0.02 414.12 115.64)" id="_2213602007328"  >
<polygon style="stroke: none; stroke-width: 1; stroke-dasharray: none; stroke-linecap: butt; stroke-dashoffset: 0; stroke-linejoin: miter; stroke-miterlimit: 4; fill: rgb(59,59,138); fill-rule: nonzero; opacity: 1;"  points="-176.85,-2179.59 1106.21,-2179.59 176.85,2179.59 -1106.21,2179.59 " />
</g>
<g transform="matrix(0.02 0 0 0.02 488.59 115.64)" id="_2213602007328"  >
<path style="stroke: none; stroke-width: 1; stroke-dasharray: none; stroke-linecap: butt; stroke-dashoffset: 0; stroke-linejoin: miter; stroke-miterlimit: 4; fill: rgb(59,59,138); fill-rule: nonzero; opacity: 1;"  transform=" translate(-22353.96, -8501.89)" d="M 20639.05 7144.8 c 60.33 -285.11 164.47 -493.48 312.51 -625.11 c 148.05 -131.53 375.65 -197.39 682.72 -197.39 l 1694.27 0 c 444.13 0 804.63 98.69 1081.58 296.18 c 276.86 197.4 415.39 493.49 415.39 888.28 c 0 120.55 -13.8 249.46 -41.19 386.53 l -592.18 2788.19 l -1283.07 0 l 526.42 -2459.17 c 27.39 -137.17 41.09 -257.72 41.09 -361.95 c 0 -202.84 -57.6 -352.24 -172.72 -448.22 c -115.11 -95.98 -304.35 -143.97 -567.51 -143.97 l -551.09 0 c -197.39 0 -315.22 95.98 -353.6 287.94 l -666.2 3125.37 l -1283.06 0 l 756.64 -3536.68 z" stroke-linecap="round" />
</g>
<g transform="matrix(0.02 0 0 0.02 589.73 100.05)" id="_2213602007328"  >
<path style="stroke: none; stroke-width: 1; stroke-dasharray: none; stroke-linecap: butt; stroke-dashoffset: 0; stroke-linejoin: miter; stroke-miterlimit: 4; fill: rgb(59,59,138); fill-rule: nonzero; opacity: 1;"  transform=" translate(-26889.94, -7802.8)" d="M 26725.43 10681.48 c -186.41 0 -361.85 -21.96 -526.41 -65.77 c -164.47 -43.91 -307.07 -109.67 -427.63 -197.39 c -120.65 -87.72 -216.62 -198.76 -287.93 -333.1 c -71.2 -134.35 -106.85 -294.74 -106.85 -481.15 c 0 -109.68 13.69 -233.05 41.09 -370.12 l 419.46 -1965.78 l -608.6 0 l 197.39 -945.87 l 608.6 0 l 296.09 -1398.18 l 1283.06 0 l -296.09 1398.18 l 1233.72 0 l -197.4 945.87 l -1233.71 0 l -320.77 1496.97 c -27.39 137.07 -41.09 252.19 -41.09 345.44 c 0 219.25 67.13 378.28 201.48 476.97 c 134.35 98.7 344.08 148.05 629.19 148.05 l 238.49 0 l -205.56 945.88 l -896.53 0 z" stroke-linecap="round" />
</g>
</svg>