<?xml version="1.0" encoding="UTF-8"?>
<!DOCTYPE svg PUBLIC "-//W3C//DTD SVG 1.1//EN" "http://www.w3.org/Graphics/SVG/1.1/DTD/svg11.dtd">
<!-- Creator: CorelDRAW -->
<svg xmlns="http://www.w3.org/2000/svg" xml:space="preserve" width="297mm" height="210mm" version="1.1" style="shape-rendering:geometricPrecision; text-rendering:geometricPrecision; image-rendering:optimizeQuality; fill-rule:evenodd; clip-rule:evenodd"
viewBox="0 0 29700 21000"
 xmlns:xlink="http://www.w3.org/1999/xlink"
 xmlns:xodm="http://www.corel.com/coreldraw/odm/2003">
 <defs>
  <style type="text/css">
   <![CDATA[
    .fil0 {fill:#D83135;fill-rule:nonzero}
    .fil1 {fill:#3B3B8A;fill-rule:nonzero}
    .fil2 {fill:#201E1E;fill-rule:nonzero}
   ]]>
  </style>
 </defs>
 <g id="Camada_x0020_1">
  <metadata id="CorelCorpID_0Corel-Layer"/>
  <g id="_2213602007328">
   <path class="fil0" d="M6511.27 10719.17c-532.84,0 -917.36,-108.49 -1153.57,-325.47 -80.01,-73.49 -146.44,-160.71 -199.35,-261.62 -60.68,154.41 -141.48,279.29 -242.4,374.6 -150,141.67 -383.32,212.49 -699.98,212.49l-1658.28 0c-283.32,0 -520.82,-40.27 -712.48,-120.83 -191.66,-80.55 -345.82,-191.65 -462.48,-333.31 -116.65,-141.67 -201.38,-311.12 -254.16,-508.33 -52.78,-197.2 -79.16,-412.48 -79.16,-645.8 0,-122.22 8.33,-245.84 24.99,-370.82 16.67,-125.01 38.9,-256.94 66.67,-395.83 72.22,-333.32 161.12,-627.76 266.66,-883.3 105.55,-255.56 244.43,-468.05 416.66,-637.48 172.21,-169.43 386.09,-298.61 641.64,-387.49 255.54,-88.88 572.2,-133.33 949.97,-133.33l1274.96 0 299.98 -1416.61 1299.96 0 -379.11 1791.1c19.56,-15.63 39.47,-30.61 59.77,-44.9 195.02,-137.33 436.71,-226.59 725.1,-267.8 288.4,-41.2 644.08,-61.79 1067.06,-61.79 307.62,0 585.03,20.59 832.22,61.79 247.19,41.21 458.68,111.24 634.46,210.12 175.79,98.87 310.36,233.46 403.75,403.74 93.38,170.29 140.08,384.53 140.08,642.72 0,87.89 -6.86,182.64 -20.6,284.26 -13.73,101.63 -34.33,207.37 -61.8,317.23 -54.93,247.19 -146.94,432.59 -276.03,556.2 -129.09,123.58 -328.22,185.39 -597.38,185.39l-2463.71 0c-21.96,104.37 -32.95,208.74 -32.95,313.11 0,170.29 52.17,299.37 156.56,387.28 104.36,87.88 296.63,131.83 576.78,131.83l2125.86 0 -197.75 922.85 -2471.94 0zm-2020.31 -3458.21l-908.3 0c-188.88,0 -347.21,36.11 -474.98,108.32 -127.78,72.22 -233.33,166.67 -316.66,283.33 -83.33,116.66 -149.99,250 -199.99,399.98 -50,149.99 -91.67,302.78 -125,458.32 -27.78,111.1 -48.61,218.05 -62.5,320.83 -13.89,102.78 -20.83,201.38 -20.83,295.83 0,188.88 48.6,341.65 145.82,458.31 97.23,116.66 276.38,175 537.49,175l558.31 0c127.79,0 219.45,-23.62 275,-70.83 55.55,-47.23 97.21,-134.73 124.98,-262.5l466.66 -2166.59zm3651.79 813.23c115.35,0 190.88,-30.2 226.59,-90.63 35.71,-60.42 59.05,-118.1 70.04,-173.03 10.99,-54.94 16.48,-93.39 16.48,-115.37 0,-87.88 -24.71,-162.04 -74.16,-222.46 -49.44,-60.43 -112.61,-108.5 -189.51,-144.21 -76.91,-35.7 -163.43,-61.79 -259.55,-78.27 -96.14,-16.47 -190.89,-24.73 -284.28,-24.73 -335.08,0 -585.03,61.81 -749.82,185.4 -164.8,123.61 -282.89,344.7 -354.3,663.3l1598.51 0z"/>
   <g>
    <path class="fil1" d="M13170.92 6322.3c301.63,0 549.73,39.82 744.4,119.29 194.58,79.56 348.16,189.23 460.56,329.02 112.39,139.79 190.49,307.07 234.4,501.74 43.81,194.58 65.77,409.85 65.77,645.61 0,115.12 -8.16,235.77 -24.68,361.86 -16.41,126.09 -38.37,255 -65.76,386.63 -71.31,350.88 -159.03,652.5 -263.16,904.69 -104.24,252.18 -242.66,460.55 -415.38,625.11 -172.72,164.46 -387.99,286.47 -645.71,365.94 -257.62,79.56 -570.23,119.29 -937.62,119.29l-1250.13 0 -296.09 1398.17 -1274.81 0 1044.48 -4934.85c120.65,-548.27 452.39,-822.5 995.23,-822.5l1628.5 0zm-1891.66 3413.3l904.69 0c186.42,0 342.72,-35.65 468.81,-106.86 126.09,-71.3 230.32,-164.56 312.51,-279.67 82.28,-115.12 146.68,-246.74 193.31,-394.79 46.63,-148.04 86.36,-298.81 119.29,-452.39 27.4,-109.68 47.99,-215.17 61.69,-316.59 13.69,-101.52 20.49,-198.85 20.49,-292.01 0,-186.42 -46.53,-337.18 -139.78,-452.4 -93.16,-115.11 -268.7,-172.72 -526.42,-172.72l-559.25 0c-120.65,0 -211.09,23.32 -271.42,69.95 -60.32,46.63 -101.41,127.45 -123.37,242.66l-460.55 2154.82z"/>
    <path class="fil1" d="M15276.49 8049.59c71.3,-340 168.64,-621.03 292.01,-843.1 123.37,-222.07 278.21,-398.87 464.63,-530.5 186.51,-131.63 408.58,-223.43 666.2,-275.49 257.72,-52.07 556.63,-78.2 896.53,-78.2l863.6 0 -197.39 945.87 -509.9 0c-208.37,0 -383.81,24.68 -526.42,74.03 -142.51,49.35 -261.8,122.01 -357.78,217.99 -95.97,95.97 -174.08,216.53 -234.4,361.85 -60.33,145.33 -109.67,313.97 -148.05,505.82l-485.22 2253.62 -1283.06 0 559.25 -2631.89z"/>
    <polygon class="fil1" points="18837.83,6322.3 20120.89,6322.3 19191.53,10681.48 17908.47,10681.48 "/>
    <path class="fil1" d="M20639.05 7144.8c60.33,-285.11 164.47,-493.48 312.51,-625.11 148.05,-131.53 375.65,-197.39 682.72,-197.39l1694.27 0c444.13,0 804.63,98.69 1081.58,296.18 276.86,197.4 415.39,493.49 415.39,888.28 0,120.55 -13.8,249.46 -41.19,386.53l-592.18 2788.19 -1283.07 0 526.42 -2459.17c27.39,-137.17 41.09,-257.72 41.09,-361.95 0,-202.84 -57.6,-352.24 -172.72,-448.22 -115.11,-95.98 -304.35,-143.97 -567.51,-143.97l-551.09 0c-197.39,0 -315.22,95.98 -353.6,287.94l-666.2 3125.37 -1283.06 0 756.64 -3536.68z"/>
    <path class="fil1" d="M26725.43 10681.48c-186.41,0 -361.85,-21.96 -526.41,-65.77 -164.47,-43.91 -307.07,-109.67 -427.63,-197.39 -120.65,-87.72 -216.62,-198.76 -287.93,-333.1 -71.2,-134.35 -106.85,-294.74 -106.85,-481.15 0,-109.68 13.69,-233.05 41.09,-370.12l419.46 -1965.78 -608.6 0 197.39 -945.87 608.6 0 296.09 -1398.18 1283.06 0 -296.09 1398.18 1233.72 0 -197.4 945.87 -1233.71 0 -320.77 1496.97c-27.39,137.07 -41.09,252.19 -41.09,345.44 0,219.25 67.13,378.28 201.48,476.97 134.35,98.7 344.08,148.05 629.19,148.05l238.49 0 -205.56 945.88 -896.53 0z"/>
   </g>
   <path class="fil2" d="M10970.33 12480.05c-28.04,-47.03 -52.07,-29.93 -96.13,-11.4 -37.38,14.24 -69.41,39.9 -102.79,62.7 -427.21,371.95 -1133.85,785.23 -1643.82,929.17 -88.12,24.23 -182.9,38.48 -273.68,34.2 -204.26,-11.4 -319.07,-155.33 -309.73,-374.8 0,-27.08 2.67,-55.58 8.01,-84.08 33.38,-171.01 72.09,-337.75 186.91,-474.56 53.39,-62.71 45.39,-131.11 -4.01,-173.86 -52.07,-44.19 -126.82,-28.51 -173.55,37.05 -5.34,7.12 -10.68,14.25 -14.69,22.8 -102.79,253.67 -176.23,514.46 -137.5,795.21 22.69,165.31 117.47,283.59 261.66,344.87 80.1,34.21 169.54,47.03 226.94,61.29 82.78,-9.98 136.18,-11.4 188.25,-22.8 570.05,-125.42 1703.9,-893.55 1850.75,-1007.55 33.38,-35.63 60.07,-91.21 33.38,-138.24l0 0zm-1872.12 -756.73c22.7,-55.58 38.72,-114.02 50.73,-172.44 16.03,-72.68 -33.37,-135.39 -104.13,-133.96 -78.77,9.97 -106.81,81.23 -137.51,149.63 -28.03,62.7 -38.71,125.42 8.01,183.84 54.74,69.83 149.53,57.01 182.9,-27.07l0 0zm4185.7 -25.65c0,126.82 -4.01,253.66 -10.68,380.5 -16.02,323.49 -57.4,646.99 -13.35,970.49 20.02,148.21 49.4,297.85 101.48,434.66 70.75,190.97 221.6,277.9 413.84,257.95 90.78,-9.98 182.9,-34.21 267.02,-71.26 504.62,-223.74 1371.06,-887.85 1475.19,-1056 40.05,-68.41 80.1,-119.71 29.37,-159.61 -56.07,-57.01 -228.29,179.56 -285.7,233.71 -248.31,236.57 -523.32,433.23 -805.02,615.65 -142.84,92.63 -291.03,178.14 -443.21,250.82 -86.79,41.33 -184.25,62.7 -280.36,74.1 -132.17,15.68 -232.3,-54.15 -285.69,-182.41 -36.05,-84.08 -62.75,-176.72 -78.77,-267.92 -45.39,-260.79 -33.38,-524.44 -13.35,-786.66 18.69,-245.12 42.72,-487.38 54.73,-732.51 4.01,-99.75 2.68,-216.61 -101.46,-272.19 -102.8,-52.73 -192.24,4.27 -267,71.25 -121.49,108.31 -245.64,216.62 -349.78,343.46 -173.56,210.91 -333.76,436.08 -500.63,655.54 -49.4,65.56 -96.12,131.12 -145.52,195.24 -1.33,-129.68 24.04,-247.96 40.05,-366.25 14.69,-111.16 34.71,-223.74 30.71,-334.9 -6.67,-163.89 -126.83,-233.72 -261.67,-153.91 -74.76,45.6 -144.18,106.89 -208.27,171.01 -233.61,239.42 -428.54,511.62 -596.75,806.61 -17.35,31.35 -38.71,61.28 -58.73,92.63 -13.36,-29.92 -13.36,-48.44 -9.35,-65.55 85.44,-350.58 -14.69,51.3 72.09,-297.85 13.35,-54.15 54.73,-101.18 61.4,-155.34 5.34,-45.6 -5.33,-106.88 -32.03,-139.65 -21.36,-25.66 -82.78,-31.36 -118.82,-19.96 -58.73,18.53 -98.78,76.96 -86.77,142.52 25.36,142.51 -56.07,326.34 -140.18,666.95 -21.35,85.5 -33.38,176.71 -34.71,265.06 -1.33,123.99 73.43,175.29 184.23,141.1 29.38,-8.56 58.75,-18.53 88.11,-24.23 72.1,-14.26 104.13,-58.44 109.47,-136.82 4.01,-52.72 14.69,-111.15 37.39,-158.19 186.9,-384.77 428.54,-722.52 719.57,-1023.22 29.37,-29.92 65.41,-55.58 114.81,-96.9 0,95.47 6.68,163.88 -1.33,232.29 -16.02,135.38 -41.39,269.34 -58.75,403.3 -8,61.28 -16.02,122.56 -12.01,182.42 6.67,86.93 69.42,125.4 141.52,85.5 45.39,-24.22 89.44,-61.28 122.82,-102.61 102.79,-123.98 194.9,-256.51 297.7,-379.07 204.27,-240.85 409.86,-478.84 618.12,-713.98 48.06,-52.73 109.47,-91.21 190.9,-158.19 13.35,82.65 29.37,132.53 29.37,182.42l0 0zm4874.17 731.07c-38.72,-7.13 -80.1,-11.39 -118.82,-7.13 -313.73,38.49 -628.79,78.39 -943.86,121.14 -81.43,11.4 -160.2,34.21 -254.99,52.73 26.7,-74.1 53.41,-128.26 65.42,-186.69 25.36,-108.31 57.41,-219.47 60.07,-330.62 5.34,-166.74 -109.47,-249.4 -257.65,-190.97 -72.1,29.93 -145.52,72.69 -202.93,128.26 -138.84,136.81 -277.68,275.05 -403.17,426.11 -327.09,396.18 -611.44,827.98 -873.12,1275.47 -25.36,41.33 -52.06,84.09 -90.77,148.21 4,-41.33 2.67,-55.58 6.68,-68.4 194.92,-548.67 388.49,-1098.76 584.73,-1648.86 25.37,-69.82 58.74,-131.1 144.18,-143.93 52.07,-8.55 74.76,-62.7 64.09,-121.13 -9.35,-57 -61.41,-104.04 -116.15,-89.79 -42.72,11.4 -89.44,41.33 -117.48,76.96 -36.05,45.6 -60.08,105.46 -80.1,161.03 -61.41,166.75 -118.81,334.91 -178.89,501.65 -333.76,936.29 -674.19,1869.74 -945.2,2828.83 -50.73,179.57 -82.78,366.25 -121.48,548.67 -8.02,41.33 -8.02,85.5 -1.35,126.83 12.02,74.11 74.76,108.31 138.85,82.66 101.45,-42.75 165.55,-223.74 125.49,-333.47 -16.02,-39.91 -26.7,-91.21 -18.7,-132.54 128.18,-611.37 371.15,-1172.86 679.53,-1722.95 116.16,79.8 222.96,54.15 324.42,1.42 90.78,-47.03 178.89,-101.19 261.66,-163.89 324.42,-245.11 587.41,-552.94 801.02,-909.22 46.72,-78.38 102.79,-121.13 185.57,-136.8 404.5,-75.54 810.35,-129.69 1222.88,-102.61 17.35,0 34.71,2.84 52.06,0 48.06,-5.7 86.78,-28.51 92.12,-84.08 5.34,-62.71 -30.71,-96.91 -84.11,-106.89l0 0zm-1688.8 490.24c-234.97,320.64 -500.64,607.09 -823.71,825.14 -113.48,76.95 -129.49,79.8 -246.98,74.1 12.02,-41.32 16.03,-84.07 36.04,-114 66.76,-104.03 129.5,-215.2 212.28,-303.55 221.6,-235.15 487.28,-401.88 775.64,-527.3 12.01,-4.27 24.03,-8.54 37.38,-9.97 8.01,-1.42 16.02,4.27 30.7,8.55 -8,15.68 -12.01,32.78 -21.35,47.03l0 0zm196.24 -312.1c-16.02,34.2 -49.4,69.83 -82.77,82.65 -246.98,99.77 -483.27,220.89 -728.92,391.92 13.35,-44.19 14.68,-59.86 22.7,-71.26 197.58,-287.87 403.17,-568.62 646.15,-815.17 50.73,-51.3 106.8,-99.75 165.55,-139.66 37.37,-25.65 85.44,-34.19 129.5,-51.3 40.05,82.65 30.7,153.91 6.67,218.05 -46.72,131.1 -101.46,259.36 -158.88,384.77l0 0zm1734.19 -601.4c13.35,-76.96 -2.67,-152.48 -73.42,-195.23 -64.08,-39.9 -129.5,-22.81 -188.24,15.68 -134.84,88.35 -218.95,216.61 -255,380.5 -20.02,95.48 10.68,175.29 84.11,235.14 65.43,55.58 138.86,76.95 222.95,66.98 69.42,-7.13 140.18,-14.25 210.93,-12.83 92.12,2.85 56.08,179.57 8.02,312.1 -110.81,310.68 -205.59,565.76 -317.73,877.87 -29.37,78.37 -53.4,159.61 -66.76,242.26 -29.37,183.84 65.42,267.92 222.95,190.97 102.79,-49.88 189.57,-143.94 271.01,-225.16 229.63,-226.59 1070.69,-1298.28 1096.06,-1362.41 28.02,-68.41 33.36,-126.83 -16.03,-156.76 -50.73,-29.93 -130.83,102.6 -142.84,122.56 -68.09,109.73 -126.83,226.59 -205.6,327.77 -217.61,277.9 -439.22,551.52 -666.18,820.86 -92.11,106.89 -198.92,199.52 -303.05,293.57 -141.51,116.86 -145.51,-45.59 -128.15,-95.47 73.43,-216.62 149.52,-431.81 226.94,-647.01 82.78,-228.01 173.56,-394.75 252.33,-624.19 30.71,-91.21 -64.09,-198.09 -202.93,-220.89 -34.71,-4.28 -68.09,-8.56 -108.14,-14.25 29.37,-122.57 60.08,-225.17 78.77,-332.06l0 0zm-323.07 310.68c-49.39,-82.66 -37.38,-115.44 80.1,-203.79 -25.36,65.55 -52.07,131.11 -80.1,203.79l0 0zm3346.9 146.78c-41.39,-45.59 -69.42,-28.5 -132.18,34.21 -45.39,44.18 -84.11,98.33 -134.84,133.96 -337.75,245.12 -698.21,438.93 -1094.7,547.24 -162.89,44.18 -331.09,64.13 -496.63,7.13 -128.17,-44.19 -173.56,-109.73 -182.9,-252.25 160.2,-86.93 311.05,-161.03 455.23,-250.82 66.75,-41.33 124.16,-105.45 173.57,-169.59 52.06,-65.55 57.4,-145.36 9.34,-222.31 -42.73,-71.26 -128.17,-112.59 -206.94,-85.51 -65.41,22.81 -129.48,61.28 -185.56,105.46 -106.8,85.5 -176.22,205.22 -250.98,323.5 -56.08,88.36 -72.1,171.01 -72.1,273.62 0,172.43 78.78,283.6 220.29,329.2 116.14,35.63 244.31,54.15 363.11,44.17 522,-42.75 1329.69,-557.21 1360.39,-589.99 88.11,-61.28 214.95,-180.98 174.9,-228.02l0 0zm-1570 -68.4c-82.76,133.96 -201.58,206.64 -337.75,252.24 85.44,-126.84 180.23,-237.99 337.75,-252.24l0 0zm3276.15 -9.98c-41.38,-44.17 -93.46,-57 -146.85,-35.63 -61.41,24.23 -124.16,51.31 -180.22,85.51 -279.03,171.01 -555.38,344.88 -833.06,518.74 -37.39,22.8 -73.43,47.03 -98.8,64.13 -106.79,-111.15 -202.92,-210.92 -300.37,-312.09 -13.35,-12.83 -26.7,-24.23 -40.05,-37.06 -93.45,-98.33 -96.12,-161.04 -2.68,-263.64 72.1,-79.81 156.21,-133.96 268.34,-146.79 12.01,25.65 22.7,49.88 33.38,74.11 30.71,62.7 77.43,91.21 141.51,71.25 64.09,-19.95 86.78,-75.53 88.11,-142.51 1.35,-98.33 -57.41,-188.12 -150.86,-202.36 -58.73,-9.98 -124.15,-8.56 -181.56,11.4 -156.19,51.3 -277.67,159.61 -361.78,310.67 -68.1,121.13 -57.42,233.72 34.71,336.33 53.4,59.85 117.48,111.15 178.89,166.73 65.42,59.86 130.83,122.56 173.55,219.47 -41.39,32.77 -81.44,61.28 -117.48,94.05 -130.83,118.29 -267.01,229.45 -387.17,359.13 -62.74,66.98 -109.46,161.04 -137.5,252.25 -34.71,108.3 36.05,195.24 144.19,196.66 42.71,0 90.78,-5.7 128.16,-25.65 263,-146.78 448.56,-361.98 504.63,-681.2 10.68,-66.98 30.71,-111.16 85.44,-143.94 126.83,-75.53 246.98,-163.88 376.48,-232.29 242.98,-128.26 464.59,-309.24 742.27,-357.7 77.44,-14.26 94.79,-119.71 38.72,-179.57l0 0zm-1883.72 1489.24c12.02,-161.04 295.05,-460.31 524.67,-555.79 -38.72,270.77 -323.08,572.89 -524.67,555.79l0 0zm3573.86 -1489.24c-41.38,-44.17 -93.45,-57 -146.86,-35.63 -61.41,24.23 -124.16,51.31 -180.22,85.51 -279.02,171.01 -555.38,344.88 -833.05,518.74 -37.39,22.8 -73.43,47.03 -98.8,64.13 -106.79,-111.15 -202.92,-210.92 -300.38,-312.09 -13.34,-12.83 -26.7,-24.23 -40.05,-37.06 -93.44,-98.33 -96.12,-161.04 -2.67,-263.64 72.09,-79.81 156.2,-133.96 268.34,-146.79 12.02,25.65 22.7,49.88 33.38,74.11 30.71,62.7 77.43,91.21 141.51,71.25 64.08,-19.95 86.77,-75.53 88.11,-142.51 1.34,-98.33 -57.41,-188.12 -150.85,-202.36 -58.74,-9.98 -124.16,-8.56 -181.57,11.4 -156.2,51.3 -277.68,159.61 -361.79,310.67 -68.08,121.13 -57.4,233.72 34.71,336.33 53.4,59.85 117.49,111.15 178.89,166.73 65.42,59.86 130.84,122.56 173.57,219.47 -41.4,32.77 -81.45,61.28 -117.5,94.05 -130.83,118.29 -267,229.45 -387.15,359.13 -62.75,66.98 -109.47,161.04 -137.51,252.25 -34.71,108.3 36.06,195.24 144.19,196.66 42.72,0 90.77,-5.7 128.16,-25.65 262.99,-146.78 448.56,-361.98 504.63,-681.2 10.69,-66.98 30.72,-111.16 85.44,-143.94 126.83,-75.53 246.98,-163.88 376.48,-232.29 242.98,-128.26 464.58,-309.24 742.28,-357.7 77.43,-14.26 94.79,-119.71 38.71,-179.57l0 0zm-1883.71 1489.24c12.01,-161.04 295.03,-460.31 524.66,-555.79 -38.72,270.77 -323.08,572.89 -524.66,555.79l0 0zm3967.67 -1413.7c-21.36,-54.16 -72.08,-68.41 -134.83,-47.03 -84.11,27.07 -166.89,62.7 -252.33,76.96 -242.96,38.47 -487.28,78.37 -731.59,96.9 -178.89,14.25 -348.43,-47.03 -497.96,-158.19 -61.42,-47.02 -109.47,-94.06 -96.13,-195.24 12.02,-109.74 -92.11,-180.98 -189.56,-138.23 -42.72,19.95 -84.11,54.15 -114.81,91.21 -54.73,68.4 -105.46,139.66 -148.19,216.61 -209.61,373.38 -347.11,778.11 -432.55,1204.22 -10.67,49.88 -14.68,102.61 -14.68,153.91 0,78.38 18.69,151.06 89.45,190.96 77.42,45.61 149.52,12.82 206.92,-41.32 70.75,-69.84 137.52,-145.36 193.59,-228.02 129.49,-193.82 212.26,-411.85 272.33,-638.46 46.72,-175.28 81.44,-353.42 124.16,-537.26 16.02,7.13 32.04,11.4 46.72,21.38 212.28,152.49 449.91,215.19 702.22,200.94 280.36,-17.1 560.71,-52.73 839.74,-82.66 33.38,-2.84 69.42,-18.52 97.45,-38.47 49.4,-35.63 64.08,-89.79 40.05,-148.21l0 0zm-2415.06 1265.49c-73.41,-209.49 249.66,-1107.3 481.96,-1343.87 37.37,293.57 -252.32,1103.03 -481.96,1343.87l0 0zm4127.89 -1341.03c-41.38,-44.17 -93.46,-57 -146.85,-35.63 -61.41,24.23 -124.16,51.31 -180.22,85.51 -279.03,171.01 -555.38,344.88 -833.05,518.74 -37.39,22.8 -73.44,47.03 -98.81,64.13 -106.79,-111.15 -202.92,-210.92 -300.37,-312.09 -13.35,-12.83 -26.7,-24.23 -40.05,-37.06 -93.45,-98.33 -96.12,-161.04 -2.68,-263.64 72.1,-79.81 156.21,-133.96 268.34,-146.79 12.01,25.65 22.69,49.88 33.38,74.11 30.71,62.7 77.44,91.21 141.52,71.25 64.08,-19.95 86.77,-75.53 88.1,-142.51 1.35,-98.33 -57.4,-188.12 -150.85,-202.36 -58.74,-9.98 -124.16,-8.56 -181.57,11.4 -156.19,51.3 -277.67,159.61 -361.78,310.67 -68.09,121.13 -57.41,233.72 34.71,336.33 53.4,59.85 117.48,111.15 178.89,166.73 65.42,59.86 130.83,122.56 173.55,219.47 -41.39,32.77 -81.44,61.28 -117.48,94.05 -130.83,118.29 -267.01,229.45 -387.16,359.13 -62.75,66.98 -109.47,161.04 -137.51,252.25 -34.71,108.3 36.05,195.24 144.2,196.66 42.71,0 90.77,-5.7 128.15,-25.65 263,-146.78 448.56,-361.98 504.64,-681.2 10.68,-66.98 30.71,-111.16 85.44,-143.94 126.82,-75.53 246.97,-163.88 376.47,-232.29 242.99,-128.26 464.59,-309.24 742.27,-357.7 77.44,-14.26 94.79,-119.71 38.72,-179.57l0 0zm-1883.71 1489.24c12.02,-161.04 295.04,-460.31 524.66,-555.79 -38.72,270.77 -323.08,572.89 -524.66,555.79l0 0z"/>
  </g>
 </g>
</svg>
